<svg xmlns="http://www.w3.org/2000/svg" fill="white"  viewBox="0 0 28 32">
	<path d="M11.517 14.068c0.539 0.46 1.446 0.809 2.356 0.821v0.001c0.017 0 0.033 0 0.050 0s0.033 0.001 0.050 0v-0.001c0.91-0.012 1.817-0.361 2.356-0.821 2.842-2.424 11.067-9.963 11.067-9.963 2.209-2.054-3.934-4.092-13.422-4.104-0.006 0-0.013 0-0.019 0-0.010 0-0.021 0-0.032 0s-0.021 0-0.032 0c-0.006 0-0.013 0-0.019 0-9.488 0.012-15.63 2.050-13.422 4.104 0 0 8.225 7.539 11.067 9.963z"></path>
	<path d="M16.327 18.15c-0.539 0.46-1.446 0.809-2.356 0.821v0.001c-0.015 0-0.030 0-0.045 0 0 0-0.002 0-0.002 0s-0.002 0-0.002 0c-0.015 0-0.030 0.001-0.045 0v-0.001c-0.91-0.012-1.817-0.361-2.356-0.821-1.967-1.677-8.904-7.967-11.518-10.351v3.64c0 0.4 0.153 0.931 0.425 1.18 1.776 1.629 8.627 7.9 11.092 10.002 0.539 0.46 1.446 0.809 2.356 0.821v0.001c0.016 0 0.032 0 0.048 0s0.032 0.001 0.048 0v-0.001c0.91-0.012 1.817-0.361 2.356-0.821 2.465-2.102 9.315-8.373 11.092-10.002 0.272-0.249 0.425-0.78 0.425-1.18v-3.64c-2.613 2.383-9.551 8.674-11.517 10.351l0.001 0.001z"></path>
	<path d="M16.327 26.706c-0.539 0.46-1.446 0.809-2.356 0.821v0.001c-0.015 0-0.030 0-0.045 0 0 0-0.002 0-0.002 0s-0.002 0-0.002 0c-0.015 0-0.030 0.001-0.045 0v-0.001c-0.91-0.012-1.817-0.361-2.356-0.821-1.967-1.677-8.904-7.967-11.518-10.351v3.64c0 0.4 0.153 0.931 0.425 1.18 1.776 1.629 8.627 7.9 11.092 10.002 0.539 0.46 1.446 0.809 2.356 0.821v0.001c0.016 0 0.032 0 0.048 0s0.032 0.001 0.048 0v-0.001c0.91-0.012 1.817-0.361 2.356-0.821 2.465-2.102 9.315-8.373 11.092-10.002 0.272-0.249 0.425-0.78 0.425-1.18v-3.64c-2.613 2.383-9.551 8.674-11.517 10.351h0.001z"></path>
</svg>