<svg xmlns="http://www.w3.org/2000/svg" fill="white" viewBox="0 0 145 32">
	<path d="M11.517 14.068c0.539 0.46 1.446 0.809 2.356 0.821v0.001c0.017 0 0.033 0 0.050 0s0.033 0.001 0.050 0v-0.001c0.91-0.012 1.817-0.361 2.356-0.821 2.842-2.424 11.067-9.963 11.067-9.963 2.209-2.054-3.934-4.092-13.422-4.104-0.006 0-0.013 0-0.019 0-0.010 0-0.021 0-0.032 0s-0.021 0-0.032 0c-0.006 0-0.013 0-0.019 0-9.488 0.012-15.63 2.050-13.422 4.104 0 0 8.225 7.539 11.067 9.963z"></path>
	<path d="M16.327 18.15c-0.539 0.46-1.446 0.809-2.356 0.821v0.001c-0.015 0-0.030 0-0.045 0 0 0-0.002 0-0.002 0s-0.002 0-0.002 0c-0.015 0-0.030 0.001-0.045 0v-0.001c-0.91-0.012-1.817-0.361-2.356-0.821-1.967-1.677-8.904-7.967-11.518-10.351v3.64c0 0.4 0.153 0.931 0.425 1.18 1.776 1.629 8.627 7.9 11.092 10.002 0.539 0.46 1.446 0.809 2.356 0.821v0.001c0.016 0 0.032 0 0.048 0s0.032 0.001 0.048 0v-0.001c0.91-0.012 1.817-0.361 2.356-0.821 2.465-2.102 9.315-8.373 11.092-10.002 0.272-0.249 0.425-0.78 0.425-1.18v-3.64c-2.613 2.383-9.551 8.674-11.517 10.351l0.001 0.001z"></path>
	<path d="M16.327 26.706c-0.539 0.46-1.446 0.809-2.356 0.821v0.001c-0.015 0-0.030 0-0.045 0 0 0-0.002 0-0.002 0s-0.002 0-0.002 0c-0.015 0-0.030 0.001-0.045 0v-0.001c-0.91-0.012-1.817-0.361-2.356-0.821-1.967-1.677-8.904-7.967-11.518-10.351v3.64c0 0.4 0.153 0.931 0.425 1.18 1.776 1.629 8.627 7.9 11.092 10.002 0.539 0.46 1.446 0.809 2.356 0.821v0.001c0.016 0 0.032 0 0.048 0s0.032 0.001 0.048 0v-0.001c0.91-0.012 1.817-0.361 2.356-0.821 2.465-2.102 9.315-8.373 11.092-10.002 0.272-0.249 0.425-0.78 0.425-1.18v-3.64c-2.613 2.383-9.551 8.674-11.517 10.351h0.001z"></path>
	<path d="M43.577 11.158l-4.469 11.103h-2.081l-4.469-11.103h1.852c0.199 0 0.36 0.049 0.482 0.145 0.127 0.092 0.222 0.212 0.283 0.36l2.403 6.397c0.092 0.24 0.181 0.502 0.268 0.788 0.092 0.281 0.176 0.576 0.253 0.888 0.066-0.311 0.138-0.607 0.214-0.888 0.082-0.286 0.168-0.548 0.26-0.788l2.387-6.397c0.051-0.127 0.14-0.242 0.268-0.344 0.133-0.107 0.296-0.161 0.49-0.161h1.859zM46.487 14.371v7.889h-2.112v-7.889h2.112zM46.74 12.129c0 0.179-0.036 0.344-0.107 0.497s-0.168 0.288-0.291 0.406c-0.117 0.117-0.258 0.209-0.421 0.275-0.158 0.066-0.329 0.099-0.513 0.099-0.173 0-0.339-0.033-0.497-0.099-0.153-0.066-0.288-0.158-0.406-0.275s-0.212-0.253-0.283-0.406c-0.066-0.153-0.099-0.319-0.099-0.497s0.033-0.344 0.099-0.497c0.071-0.158 0.166-0.296 0.283-0.413s0.253-0.209 0.406-0.275c0.158-0.066 0.324-0.099 0.497-0.099 0.184 0 0.355 0.033 0.513 0.099 0.163 0.066 0.303 0.158 0.421 0.275 0.122 0.117 0.219 0.255 0.291 0.413 0.071 0.153 0.107 0.319 0.107 0.497zM54.013 16.131c-0.061 0.082-0.122 0.145-0.184 0.191-0.061 0.041-0.148 0.061-0.26 0.061-0.102 0-0.202-0.028-0.298-0.084-0.092-0.061-0.199-0.125-0.321-0.191-0.122-0.071-0.268-0.135-0.436-0.191-0.168-0.061-0.378-0.092-0.627-0.092-0.316 0-0.592 0.059-0.826 0.176-0.23 0.112-0.421 0.275-0.574 0.49s-0.268 0.474-0.344 0.781c-0.071 0.306-0.107 0.65-0.107 1.033 0 0.806 0.161 1.423 0.482 1.852 0.326 0.429 0.77 0.643 1.331 0.643 0.194 0 0.36-0.015 0.497-0.046 0.143-0.036 0.265-0.079 0.367-0.13 0.107-0.051 0.199-0.107 0.275-0.168s0.148-0.117 0.214-0.168c0.071-0.051 0.14-0.092 0.207-0.122 0.071-0.036 0.15-0.054 0.237-0.054 0.163 0 0.291 0.061 0.383 0.184l0.605 0.765c-0.224 0.26-0.464 0.477-0.719 0.65-0.255 0.168-0.52 0.303-0.796 0.406-0.27 0.097-0.546 0.163-0.826 0.199-0.281 0.041-0.559 0.061-0.834 0.061-0.485 0-0.944-0.089-1.377-0.268-0.434-0.184-0.814-0.449-1.14-0.796s-0.587-0.773-0.781-1.278c-0.189-0.505-0.283-1.082-0.283-1.729 0-0.576 0.084-1.112 0.253-1.607s0.416-0.923 0.742-1.286c0.326-0.362 0.73-0.645 1.209-0.849 0.485-0.209 1.043-0.314 1.676-0.314 0.602 0 1.13 0.097 1.584 0.291s0.862 0.474 1.224 0.842l-0.551 0.75zM58.427 22.383c-0.357 0-0.673-0.051-0.949-0.153-0.275-0.107-0.508-0.258-0.696-0.451s-0.332-0.429-0.429-0.704c-0.097-0.275-0.145-0.587-0.145-0.934v-4.255h-0.742c-0.112 0-0.209-0.036-0.291-0.107-0.077-0.071-0.115-0.179-0.115-0.321v-0.826l1.263-0.23 0.429-2.043c0.056-0.23 0.212-0.344 0.467-0.344h1.102v2.403h2.035v1.469h-2.035v4.117c0 0.219 0.051 0.393 0.153 0.52 0.107 0.128 0.258 0.191 0.451 0.191 0.102 0 0.189-0.010 0.26-0.031 0.071-0.026 0.133-0.051 0.184-0.077 0.051-0.031 0.097-0.056 0.138-0.077 0.046-0.026 0.092-0.038 0.138-0.038 0.061 0 0.112 0.015 0.153 0.046 0.041 0.026 0.082 0.071 0.122 0.138l0.635 1.010c-0.291 0.23-0.62 0.403-0.987 0.52s-0.747 0.176-1.14 0.176zM64.97 14.249c0.592 0 1.13 0.094 1.615 0.283s0.9 0.459 1.247 0.811c0.347 0.347 0.615 0.77 0.803 1.27s0.283 1.064 0.283 1.691c0 0.627-0.094 1.194-0.283 1.699-0.189 0.5-0.457 0.926-0.803 1.278s-0.763 0.622-1.247 0.811c-0.485 0.189-1.023 0.283-1.615 0.283-0.597 0-1.14-0.094-1.63-0.283-0.485-0.189-0.9-0.459-1.247-0.811s-0.617-0.778-0.811-1.278c-0.189-0.505-0.283-1.071-0.283-1.699s0.094-1.191 0.283-1.691c0.194-0.5 0.464-0.923 0.811-1.27 0.347-0.352 0.763-0.622 1.247-0.811 0.49-0.189 1.033-0.283 1.63-0.283zM64.97 20.792c0.602 0 1.048-0.207 1.339-0.62 0.291-0.418 0.436-1.038 0.436-1.859 0-0.816-0.145-1.431-0.436-1.844-0.291-0.418-0.737-0.627-1.339-0.627-0.617 0-1.071 0.209-1.362 0.627-0.291 0.413-0.436 1.028-0.436 1.844 0 0.821 0.145 1.441 0.436 1.859 0.291 0.413 0.745 0.62 1.362 0.62zM72.227 15.672c0.25-0.449 0.538-0.803 0.865-1.064s0.709-0.39 1.148-0.39c0.357 0 0.648 0.084 0.872 0.253l-0.138 1.561c-0.026 0.102-0.067 0.173-0.122 0.214-0.051 0.036-0.122 0.054-0.214 0.054-0.082 0-0.199-0.010-0.352-0.031-0.153-0.026-0.296-0.038-0.429-0.038-0.194 0-0.367 0.028-0.52 0.084-0.148 0.056-0.281 0.135-0.398 0.237s-0.225 0.227-0.321 0.375c-0.092 0.148-0.179 0.316-0.26 0.505v4.829h-2.112v-7.889h1.247c0.214 0 0.362 0.038 0.444 0.115s0.14 0.209 0.176 0.398l0.115 0.788zM78.187 14.371v7.889h-2.112v-7.889h2.112zM78.44 12.129c0 0.179-0.036 0.344-0.107 0.497s-0.168 0.288-0.291 0.406c-0.118 0.117-0.258 0.209-0.421 0.275-0.159 0.066-0.329 0.099-0.513 0.099-0.174 0-0.339-0.033-0.497-0.099-0.153-0.066-0.289-0.158-0.406-0.275s-0.212-0.253-0.283-0.406c-0.067-0.153-0.099-0.319-0.099-0.497s0.033-0.344 0.099-0.497c0.071-0.158 0.166-0.296 0.283-0.413s0.253-0.209 0.406-0.275c0.158-0.066 0.323-0.099 0.497-0.099 0.184 0 0.354 0.033 0.513 0.099 0.163 0.066 0.303 0.158 0.421 0.275 0.122 0.117 0.219 0.255 0.291 0.413 0.071 0.153 0.107 0.319 0.107 0.497zM84.113 18.963c-0.515 0.026-0.943 0.071-1.286 0.138-0.342 0.061-0.614 0.143-0.819 0.245-0.199 0.102-0.342 0.219-0.429 0.352-0.081 0.128-0.122 0.268-0.122 0.421 0 0.306 0.084 0.523 0.253 0.65 0.174 0.128 0.413 0.191 0.719 0.191 0.352 0 0.656-0.061 0.911-0.184 0.26-0.128 0.518-0.324 0.773-0.589v-1.224zM79.813 15.466c0.465-0.418 0.977-0.73 1.538-0.934 0.561-0.209 1.169-0.314 1.821-0.314 0.47 0 0.888 0.077 1.255 0.23 0.373 0.153 0.687 0.367 0.941 0.643 0.26 0.27 0.459 0.594 0.597 0.972s0.207 0.791 0.207 1.24v4.959h-0.964c-0.199 0-0.352-0.028-0.459-0.084-0.102-0.056-0.186-0.173-0.253-0.352l-0.168-0.505c-0.199 0.173-0.392 0.326-0.582 0.459-0.184 0.133-0.375 0.245-0.574 0.337-0.199 0.087-0.413 0.153-0.643 0.199-0.224 0.046-0.477 0.069-0.758 0.069-0.346 0-0.663-0.046-0.949-0.138s-0.533-0.227-0.742-0.406c-0.204-0.184-0.362-0.411-0.474-0.681s-0.168-0.582-0.168-0.934c0-0.291 0.074-0.582 0.222-0.872s0.401-0.554 0.758-0.788c0.362-0.24 0.842-0.436 1.439-0.589 0.602-0.158 1.354-0.247 2.257-0.268v-0.406c0-0.495-0.104-0.857-0.314-1.087-0.209-0.235-0.51-0.352-0.903-0.352-0.291 0-0.533 0.036-0.727 0.107-0.193 0.066-0.365 0.14-0.513 0.222-0.143 0.077-0.278 0.15-0.406 0.222-0.127 0.066-0.275 0.099-0.444 0.099-0.147 0-0.273-0.036-0.375-0.107-0.097-0.077-0.178-0.166-0.245-0.268l-0.375-0.673zM100.175 11.158v11.103h-2.028v-6.818c0-0.143 0.003-0.296 0.008-0.459 0.010-0.163 0.026-0.329 0.046-0.497l-3.176 6.022c-0.173 0.332-0.441 0.497-0.803 0.497h-0.321c-0.178 0-0.337-0.041-0.474-0.122-0.138-0.087-0.247-0.212-0.329-0.375l-3.191-6.045c0.015 0.179 0.029 0.352 0.038 0.52 0.010 0.163 0.015 0.316 0.015 0.459v6.818h-2.028v-11.103h1.745c0.097 0 0.184 0.003 0.26 0.008s0.143 0.020 0.199 0.046c0.061 0.020 0.115 0.056 0.161 0.107 0.051 0.046 0.099 0.112 0.145 0.199l3.107 5.923c0.097 0.179 0.186 0.362 0.268 0.551 0.087 0.189 0.168 0.383 0.245 0.582 0.077-0.204 0.156-0.403 0.237-0.597 0.087-0.194 0.179-0.38 0.275-0.559l3.084-5.9c0.046-0.087 0.095-0.153 0.145-0.199 0.051-0.051 0.105-0.087 0.161-0.107 0.061-0.026 0.128-0.041 0.199-0.046 0.077-0.005 0.166-0.008 0.268-0.008h1.745zM106.964 17.386c0-0.219-0.031-0.429-0.092-0.627-0.056-0.199-0.148-0.375-0.275-0.528s-0.289-0.273-0.482-0.36c-0.194-0.092-0.426-0.138-0.696-0.138-0.505 0-0.901 0.143-1.186 0.429s-0.472 0.694-0.559 1.224h3.29zM103.643 18.641c0.066 0.74 0.275 1.28 0.627 1.622 0.357 0.342 0.821 0.513 1.393 0.513 0.291 0 0.541-0.033 0.75-0.099 0.214-0.071 0.4-0.148 0.559-0.23 0.163-0.087 0.308-0.163 0.436-0.23 0.132-0.071 0.262-0.107 0.39-0.107 0.163 0 0.291 0.061 0.383 0.184l0.612 0.765c-0.225 0.26-0.472 0.477-0.742 0.65-0.271 0.168-0.551 0.303-0.842 0.406-0.291 0.097-0.584 0.163-0.88 0.199-0.296 0.041-0.582 0.061-0.857 0.061-0.551 0-1.066-0.089-1.546-0.268-0.474-0.184-0.89-0.451-1.247-0.803-0.352-0.357-0.63-0.798-0.834-1.324s-0.306-1.135-0.306-1.829c0-0.536 0.086-1.041 0.26-1.515 0.178-0.474 0.433-0.888 0.765-1.24s0.735-0.63 1.209-0.834c0.474-0.209 1.010-0.314 1.607-0.314 0.505 0 0.969 0.082 1.393 0.245 0.429 0.158 0.796 0.39 1.102 0.696 0.311 0.306 0.551 0.684 0.719 1.133 0.173 0.444 0.26 0.951 0.26 1.523 0 0.158-0.008 0.288-0.023 0.39s-0.041 0.184-0.077 0.245c-0.036 0.061-0.084 0.105-0.145 0.13-0.061 0.020-0.141 0.031-0.237 0.031h-4.729zM112.799 22.383c-0.358 0-0.673-0.051-0.949-0.153-0.275-0.107-0.508-0.258-0.696-0.451s-0.332-0.429-0.429-0.704c-0.097-0.275-0.145-0.587-0.145-0.934v-4.255h-0.742c-0.113 0-0.209-0.036-0.291-0.107-0.077-0.071-0.115-0.179-0.115-0.321v-0.826l1.263-0.23 0.429-2.043c0.056-0.23 0.211-0.344 0.467-0.344h1.102v2.403h2.035v1.469h-2.035v4.117c0 0.219 0.051 0.393 0.153 0.52 0.107 0.128 0.257 0.191 0.451 0.191 0.102 0 0.189-0.010 0.26-0.031 0.071-0.026 0.132-0.051 0.184-0.077 0.051-0.031 0.097-0.056 0.138-0.077 0.046-0.026 0.092-0.038 0.138-0.038 0.061 0 0.112 0.015 0.153 0.046 0.040 0.026 0.081 0.071 0.122 0.138l0.635 1.010c-0.291 0.23-0.62 0.403-0.987 0.52s-0.748 0.176-1.14 0.176zM117.841 15.672c0.25-0.449 0.538-0.803 0.865-1.064s0.709-0.39 1.148-0.39c0.357 0 0.648 0.084 0.872 0.253l-0.138 1.561c-0.026 0.102-0.066 0.173-0.122 0.214-0.051 0.036-0.122 0.054-0.214 0.054-0.081 0-0.199-0.010-0.352-0.031-0.153-0.026-0.296-0.038-0.429-0.038-0.194 0-0.367 0.028-0.52 0.084-0.148 0.056-0.28 0.135-0.398 0.237s-0.225 0.227-0.321 0.375c-0.092 0.148-0.179 0.316-0.26 0.505v4.829h-2.112v-7.889h1.247c0.214 0 0.362 0.038 0.444 0.115s0.141 0.209 0.176 0.398l0.115 0.788zM123.801 14.371v7.889h-2.112v-7.889h2.112zM124.054 12.129c0 0.179-0.035 0.344-0.107 0.497s-0.168 0.288-0.291 0.406c-0.118 0.117-0.257 0.209-0.421 0.275-0.158 0.066-0.329 0.099-0.513 0.099-0.173 0-0.339-0.033-0.497-0.099-0.153-0.066-0.288-0.158-0.406-0.275s-0.211-0.253-0.283-0.406c-0.066-0.153-0.099-0.319-0.099-0.497s0.033-0.344 0.099-0.497c0.072-0.158 0.166-0.296 0.283-0.413s0.253-0.209 0.406-0.275c0.158-0.066 0.324-0.099 0.497-0.099 0.184 0 0.355 0.033 0.513 0.099 0.163 0.066 0.303 0.158 0.421 0.275 0.122 0.117 0.219 0.255 0.291 0.413 0.072 0.153 0.107 0.319 0.107 0.497zM131.327 16.131c-0.061 0.082-0.122 0.145-0.184 0.191-0.061 0.041-0.148 0.061-0.26 0.061-0.102 0-0.202-0.028-0.298-0.084-0.092-0.061-0.199-0.125-0.321-0.191-0.122-0.071-0.268-0.135-0.436-0.191-0.168-0.061-0.378-0.092-0.627-0.092-0.317 0-0.592 0.059-0.826 0.176-0.23 0.112-0.421 0.275-0.574 0.49s-0.268 0.474-0.344 0.781c-0.072 0.306-0.107 0.65-0.107 1.033 0 0.806 0.161 1.423 0.482 1.852 0.326 0.429 0.77 0.643 1.331 0.643 0.193 0 0.36-0.015 0.497-0.046 0.143-0.036 0.265-0.079 0.367-0.13 0.107-0.051 0.199-0.107 0.275-0.168s0.147-0.117 0.214-0.168c0.071-0.051 0.14-0.092 0.207-0.122 0.071-0.036 0.15-0.054 0.237-0.054 0.163 0 0.291 0.061 0.383 0.184l0.605 0.765c-0.225 0.26-0.465 0.477-0.719 0.65-0.255 0.168-0.52 0.303-0.796 0.406-0.271 0.097-0.546 0.163-0.826 0.199-0.281 0.041-0.559 0.061-0.834 0.061-0.485 0-0.944-0.089-1.377-0.268-0.434-0.184-0.814-0.449-1.14-0.796s-0.587-0.773-0.781-1.278c-0.189-0.505-0.283-1.082-0.283-1.729 0-0.576 0.084-1.112 0.253-1.607s0.415-0.923 0.742-1.286c0.326-0.362 0.729-0.645 1.209-0.849 0.484-0.209 1.043-0.314 1.676-0.314 0.602 0 1.13 0.097 1.584 0.291s0.862 0.474 1.224 0.842l-0.551 0.75zM137.921 15.994c-0.056 0.087-0.115 0.15-0.176 0.191-0.056 0.036-0.135 0.054-0.237 0.054s-0.207-0.026-0.314-0.077c-0.107-0.051-0.227-0.105-0.36-0.161-0.133-0.061-0.286-0.117-0.459-0.168-0.168-0.051-0.365-0.077-0.589-0.077-0.342 0-0.607 0.071-0.796 0.214-0.189 0.138-0.283 0.321-0.283 0.551 0 0.158 0.054 0.291 0.161 0.398s0.248 0.202 0.421 0.283c0.179 0.077 0.38 0.15 0.605 0.222 0.225 0.066 0.454 0.14 0.689 0.222 0.24 0.082 0.472 0.176 0.696 0.283s0.424 0.242 0.597 0.406c0.179 0.158 0.321 0.352 0.429 0.582 0.107 0.224 0.161 0.497 0.161 0.819 0 0.383-0.072 0.737-0.214 1.064-0.138 0.321-0.342 0.599-0.612 0.834s-0.607 0.418-1.010 0.551c-0.403 0.133-0.867 0.199-1.393 0.199-0.271 0-0.538-0.026-0.803-0.077-0.265-0.046-0.518-0.112-0.758-0.199-0.24-0.092-0.464-0.196-0.673-0.314s-0.39-0.245-0.543-0.383l0.49-0.788c0.056-0.092 0.125-0.163 0.207-0.214 0.087-0.051 0.196-0.077 0.329-0.077 0.127 0 0.245 0.033 0.352 0.099 0.107 0.061 0.227 0.13 0.36 0.207 0.133 0.071 0.288 0.14 0.467 0.207 0.184 0.061 0.41 0.092 0.681 0.092 0.204 0 0.38-0.023 0.528-0.069s0.268-0.107 0.36-0.184c0.092-0.082 0.158-0.171 0.199-0.268 0.046-0.102 0.069-0.207 0.069-0.314 0-0.173-0.056-0.314-0.168-0.421-0.107-0.112-0.25-0.209-0.429-0.291-0.173-0.082-0.375-0.156-0.605-0.222s-0.464-0.14-0.704-0.222c-0.234-0.082-0.467-0.179-0.696-0.291-0.225-0.112-0.426-0.253-0.605-0.421-0.173-0.173-0.317-0.385-0.429-0.635-0.107-0.25-0.161-0.554-0.161-0.911 0-0.326 0.064-0.635 0.191-0.926 0.127-0.296 0.319-0.556 0.574-0.781s0.571-0.403 0.949-0.536c0.383-0.133 0.824-0.199 1.324-0.199 0.561 0 1.071 0.092 1.53 0.275s0.837 0.423 1.133 0.719l-0.482 0.75z"></path>
</svg>